<svg xmlns="http://www.w3.org/2000/svg" viewBox="0 0 800 800">
  <path d="M507.18,105.93c-45.05-29.64-107.68-37.97-169.36-10.7c-61.68,27.27-109.29,92.2-130.9,157.13 c-21.61,64.93-17.22,129.86-3.17,185.1c14.05,55.24,37.76,100.79,84.54,128.41c46.78,27.61,116.64,37.3,176.82,21.61 c60.18-15.7,110.68-56.77,142.15-108.9c31.46-52.13,43.88-115.33,33.95-167.17C631.18,259.58,598.86,219.38,557.55,188 C516.24,156.63,465.73,134.29,507.18,105.93z" style="fill:none"/>
  <g>
    <path d="M400,675c-152.67,0-275-122.33-275-275S247.33,125,400,125s275,122.33,275,275S552.67,675,400,675z" style="fill:none"/>
    <g>
      <path d="M509.72,261.01c27.83,6.5,53.18,19.99,65.19,46.52c3.81,8.41,0.09,18.3-8.32,22.11 c-8.41,3.81-18.3,0.09-22.11-8.32c-6.92-15.28-20.53-23.15-39.88-27.67c-8.96-2.09-14.54-11-12.45-19.96 C494.25,264.73,500.98,258.99,509.72,261.01z" style="fill:#000000"/>
      <path d="M290.28,261.01c-27.83,6.5-53.18,19.99-65.19,46.52c-3.81,8.41-0.09,18.3,8.32,22.11 c8.41,3.81,18.3,0.09,22.11-8.32c6.92-15.28,20.53-23.15,39.88-27.67c8.96-2.09,14.54-11,12.45-19.96 C305.75,264.73,299.02,258.99,290.28,261.01z" style="fill:#000000"/>
    </g>
    <path d="M393.63,543.63c-4.61,0-9.23-1.76-12.73-5.27c-7.03-7.03-7.03-18.44,0-25.46 c2.69-2.69,2.2-4.71,2.2-6.1c0-1.39,0.48-3.41-2.2-6.1c-7.03-7.03-7.03-18.44,0-25.46c7.03-7.03,18.44-7.03,25.46,0 c8.28,8.28,13.2,20.25,13.2,32.27c0,12.01-4.92,23.99-13.2,32.27C402.86,541.87,398.24,543.63,393.63,543.63z" style="fill:#000000"/>
    <g>
      <ellipse cx="340" cy="380" rx="30" ry="50" style="fill:#FFFFFF"/>
      <ellipse cx="460" cy="380" rx="30" ry="50" style="fill:#FFFFFF"/>
      <path d="M340,425c-16.54,0-30-20.14-30-45s13.46-45,30-45s30,20.14,30,45S356.54,425,340,425z M340,345 c-5.79,0-20,10.77-20,35s14.21,35,20,35s20-10.77,20-35S345.79,345,340,345z" style="fill:#000000"/>
      <path d="M460,425c-16.54,0-30-20.14-30-45s13.46-45,30-45s30,20.14,30,45S476.54,425,460,425z M460,345 c-5.79,0-20,10.77-20,35s14.21,35,20,35s20-10.77,20-35S465.79,345,460,345z" style="fill:#000000"/>
      <circle cx="340" cy="380" r="15" style="fill:#000000"/>
      <circle cx="460" cy="380" r="15" style="fill:#000000"/>
      <circle cx="345" cy="375" r="5" style="fill:#FFFFFF"/>
      <circle cx="465" cy="375" r="5" style="fill:#FFFFFF"/>
    </g>
    <path d="M471.63,622.24c-19.72,7.9-40.99,12.23-63.26,12.23c-21.82,0-42.69-4.15-61.96-11.69 c-8.28-3.24-12.36-12.57-9.12-20.85c3.24-8.28,12.57-12.36,20.85-9.12c15.88,6.22,32.98,9.66,50.78,9.66 c18.18,0,35.61-3.59,51.78-10.08c8.22-3.3,17.59,0.69,20.89,8.92C484.85,609.57,480.86,618.95,471.63,622.24z" style="fill:#000000"/>
    <path d="M521.94,217.6c-32.78-28.38-79.32-61.99-122.41-68.7c-10.32-1.6-17.75-11.04-16.14-21.36 c1.6-10.32,11.04-17.75,21.36-16.14c54.66,8.5,107.64,46.82,146.34,80.3c7.73,6.69,8.57,18.41,1.88,26.15 C546.28,225.58,534.56,226.42,521.94,217.6z" style="fill:#000000"/>
    <path d="M278.06,217.6c32.78-28.38,79.32-61.99,122.41-68.7c10.32-1.6,17.75-11.04,16.14-21.36 c-1.6-10.32-11.04-17.75-21.36-16.14c-54.66,8.5-107.64,46.82-146.34,80.3c-7.73,6.69-8.57,18.41-1.88,26.15 C253.72,225.58,265.44,226.42,278.06,217.6z" style="fill:#000000"/>
    <path d="M400,675c-154.79,0-275-120.21-275-275S245.21,125,400,125s275,120.21,275,275S554.79,675,400,675z M400,155c-135.31,0-245,109.69-245,245s109.69,245,245,245s245-109.69,245-245S535.31,155,400,155z" style="fill:#000000"/>
  </g>
</svg>